<?xml version="1.0" encoding="UTF-8"?>
<svg xmlns="http://www.w3.org/2000/svg" viewBox="0 0 512 512">
  <rect width="512" height="512" fill="#f5f5f5"/>
  <path d="M256,96 C160,96 120,168 120,220 C120,270 148,301 164,316 C172,324 176,336 176,348 L176,380 C176,394 186,408 206,408 L226,408 C236,408 244,416 244,426 L244,448 C244,468 274,472 274,452 L274,96 Z" fill="#000000"/>
  <rect x="274" y="160" width="24" height="232" fill="#000000"/>
  <g stroke="#000000" stroke-width="24" stroke-linecap="round">
    <line x1="298" y1="200" x2="388" y2="200"/>
    <circle cx="412" cy="200" r="18" fill="#000000"/>
    <line x1="298" y1="276" x2="360" y2="276"/>
    <line x1="360" y1="276" x2="420" y2="236"/>
    <circle cx="444" cy="220" r="18" fill="#000000"/>
    <line x1="298" y1="352" x2="360" y2="352"/>
    <line x1="360" y1="352" x2="420" y2="392"/>
    <circle cx="444" cy="408" r="18" fill="#000000"/>
  </g>
</svg>